<?xml version="1.0" encoding="UTF-8" standalone="no"?>
<!-- Created with Inkscape (http://www.inkscape.org/) -->

<svg
   xmlns:dc="http://purl.org/dc/elements/1.1/"
   xmlns:cc="http://creativecommons.org/ns#"
   xmlns:rdf="http://www.w3.org/1999/02/22-rdf-syntax-ns#"
   xmlns:svg="http://www.w3.org/2000/svg"
   xmlns="http://www.w3.org/2000/svg"
   xmlns:sodipodi="http://sodipodi.sourceforge.net/DTD/sodipodi-0.dtd"
   xmlns:inkscape="http://www.inkscape.org/namespaces/inkscape"
   width="128"
   height="128"
   id="svg2"
   version="1.1"
   inkscape:version="0.47 r22583"
   sodipodi:docname="orn_01.svg">
  <title
     id="title3764">Spiral ornament</title>
  <defs
     id="defs4">
    <inkscape:perspective
       sodipodi:type="inkscape:persp3d"
       inkscape:vp_x="0 : 526.18109 : 1"
       inkscape:vp_y="0 : 1000 : 0"
       inkscape:vp_z="744.09448 : 526.18109 : 1"
       inkscape:persp3d-origin="372.04724 : 350.78739 : 1"
       id="perspective10" />
    <inkscape:perspective
       id="perspective3613"
       inkscape:persp3d-origin="0.5 : 0.33333333 : 1"
       inkscape:vp_z="1 : 0.5 : 1"
       inkscape:vp_y="0 : 1000 : 0"
       inkscape:vp_x="0 : 0.5 : 1"
       sodipodi:type="inkscape:persp3d" />
    <inkscape:perspective
       id="perspective3635"
       inkscape:persp3d-origin="0.5 : 0.33333333 : 1"
       inkscape:vp_z="1 : 0.5 : 1"
       inkscape:vp_y="0 : 1000 : 0"
       inkscape:vp_x="0 : 0.5 : 1"
       sodipodi:type="inkscape:persp3d" />
    <inkscape:perspective
       id="perspective3635-8"
       inkscape:persp3d-origin="0.5 : 0.33333333 : 1"
       inkscape:vp_z="1 : 0.5 : 1"
       inkscape:vp_y="0 : 1000 : 0"
       inkscape:vp_x="0 : 0.5 : 1"
       sodipodi:type="inkscape:persp3d" />
    <inkscape:perspective
       id="perspective3635-3"
       inkscape:persp3d-origin="0.5 : 0.33333333 : 1"
       inkscape:vp_z="1 : 0.5 : 1"
       inkscape:vp_y="0 : 1000 : 0"
       inkscape:vp_x="0 : 0.5 : 1"
       sodipodi:type="inkscape:persp3d" />
    <inkscape:perspective
       id="perspective3635-6"
       inkscape:persp3d-origin="0.5 : 0.33333333 : 1"
       inkscape:vp_z="1 : 0.5 : 1"
       inkscape:vp_y="0 : 1000 : 0"
       inkscape:vp_x="0 : 0.5 : 1"
       sodipodi:type="inkscape:persp3d" />
    <inkscape:perspective
       id="perspective3635-4"
       inkscape:persp3d-origin="0.5 : 0.33333333 : 1"
       inkscape:vp_z="1 : 0.5 : 1"
       inkscape:vp_y="0 : 1000 : 0"
       inkscape:vp_x="0 : 0.5 : 1"
       sodipodi:type="inkscape:persp3d" />
    <inkscape:perspective
       id="perspective3635-31"
       inkscape:persp3d-origin="0.5 : 0.33333333 : 1"
       inkscape:vp_z="1 : 0.5 : 1"
       inkscape:vp_y="0 : 1000 : 0"
       inkscape:vp_x="0 : 0.5 : 1"
       sodipodi:type="inkscape:persp3d" />
    <inkscape:perspective
       id="perspective3635-9"
       inkscape:persp3d-origin="0.5 : 0.33333333 : 1"
       inkscape:vp_z="1 : 0.5 : 1"
       inkscape:vp_y="0 : 1000 : 0"
       inkscape:vp_x="0 : 0.5 : 1"
       sodipodi:type="inkscape:persp3d" />
    <inkscape:perspective
       id="perspective3778"
       inkscape:persp3d-origin="0.5 : 0.33333333 : 1"
       inkscape:vp_z="1 : 0.5 : 1"
       inkscape:vp_y="0 : 1000 : 0"
       inkscape:vp_x="0 : 0.5 : 1"
       sodipodi:type="inkscape:persp3d" />
    <inkscape:perspective
       id="perspective3800"
       inkscape:persp3d-origin="0.5 : 0.33333333 : 1"
       inkscape:vp_z="1 : 0.5 : 1"
       inkscape:vp_y="0 : 1000 : 0"
       inkscape:vp_x="0 : 0.5 : 1"
       sodipodi:type="inkscape:persp3d" />
    <inkscape:perspective
       id="perspective3836"
       inkscape:persp3d-origin="0.5 : 0.33333333 : 1"
       inkscape:vp_z="1 : 0.5 : 1"
       inkscape:vp_y="0 : 1000 : 0"
       inkscape:vp_x="0 : 0.5 : 1"
       sodipodi:type="inkscape:persp3d" />
    <inkscape:perspective
       id="perspective3858"
       inkscape:persp3d-origin="0.5 : 0.33333333 : 1"
       inkscape:vp_z="1 : 0.5 : 1"
       inkscape:vp_y="0 : 1000 : 0"
       inkscape:vp_x="0 : 0.5 : 1"
       sodipodi:type="inkscape:persp3d" />
  </defs>
  <sodipodi:namedview
     id="base"
     pagecolor="#ffffff"
     bordercolor="#666666"
     borderopacity="1.0"
     inkscape:pageopacity="0"
     inkscape:pageshadow="2"
     inkscape:zoom="2.8"
     inkscape:cx="-5.0714286"
     inkscape:cy="46.251566"
     inkscape:document-units="px"
     inkscape:current-layer="layer1"
     showgrid="true"
     inkscape:window-width="1280"
     inkscape:window-height="725"
     inkscape:window-x="0"
     inkscape:window-y="24"
     inkscape:window-maximized="1" />
  <metadata
     id="metadata7">
    <rdf:RDF>
      <cc:Work
         rdf:about="">
        <dc:format>image/svg+xml</dc:format>
        <dc:type
           rdf:resource="http://purl.org/dc/dcmitype/StillImage" />
        <dc:title>Spiral ornament</dc:title>
        <cc:license
           rdf:resource="http://creativecommons.org/licenses/publicdomain/" />
        <dc:date>2012-01-06</dc:date>
        <dc:creator>
          <cc:Agent>
            <dc:title>dibargatin</dc:title>
          </cc:Agent>
        </dc:creator>
      </cc:Work>
      <cc:License
         rdf:about="http://creativecommons.org/licenses/publicdomain/">
        <cc:permits
           rdf:resource="http://creativecommons.org/ns#Reproduction" />
        <cc:permits
           rdf:resource="http://creativecommons.org/ns#Distribution" />
        <cc:permits
           rdf:resource="http://creativecommons.org/ns#DerivativeWorks" />
      </cc:License>
    </rdf:RDF>
  </metadata>
  <g
     inkscape:label="Layer 1"
     inkscape:groupmode="layer"
     id="layer1"
     transform="translate(0,-924.36218)">
    <path
       style="fill:#ffb4a4;fill-opacity:1;stroke:none"
       d="M 61.28125 3.34375 C 48.152805 3.6730752 54.26144 7.1095583 65.0625 10.34375 C 76.880426 7.1652249 83.170554 3.5999435 65.15625 3.34375 C 63.711992 3.3232102 62.424509 3.3150715 61.28125 3.34375 z M 65.0625 10.34375 C 58.384794 12.139772 49.986435 13.77427 43.125 14.65625 C 37.755778 19.011582 30.781174 23.968157 24.875 27.5625 C 21.746575 33.712095 17.3623 41.042738 13.4375 46.71875 C 13.082034 53.62441 12.06266 62.139753 10.78125 68.9375 C 13.256406 75.37521 15.784091 83.539642 17.375 90.25 C 22.269897 95.135848 27.899369 101.59239 32.09375 107.09375 C 38.526941 109.55893 46.262822 113.16347 52.3125 116.46875 C 59.225626 116.09731 67.808363 116.21608 74.71875 116.78125 C 80.867816 113.64364 88.738076 110.28432 95.25 108 C 99.596083 102.62478 105.4099 96.335297 110.4375 91.59375 C 112.2207 84.920133 114.99396 76.841796 117.65625 70.46875 C 116.568 63.639523 115.78488 55.103803 115.625 48.1875 C 111.85766 42.395859 107.67442 34.932538 104.71875 28.6875 C 98.927595 24.932876 92.081906 19.812051 86.84375 15.3125 C 80.019822 14.237381 71.682543 12.326008 65.0625 10.34375 z M 86.84375 15.3125 C 98.942238 17.218632 106.14097 16.501878 89.78125 8.9375 C 73.408329 1.3670199 77.539149 7.3198922 86.84375 15.3125 z M 104.71875 28.6875 C 114.99943 35.352852 121.87103 37.629737 110 24.0625 C 98.128888 10.495175 99.477267 17.612764 104.71875 28.6875 z M 115.625 48.1875 C 122.30583 58.458131 127.63894 63.347673 122.3125 46.125 C 116.987 28.905372 115.34193 35.942483 115.625 48.1875 z M 117.65625 70.46875 C 119.58205 82.554003 122.45597 89.16995 124.59375 71.28125 C 126.73295 53.380698 122.37923 59.162768 117.65625 70.46875 z M 110.4375 91.59375 C 107.27352 103.4349 107.20092 110.67292 116.4375 95.1875 C 125.66991 79.709071 119.34667 83.191487 110.4375 91.59375 z M 95.25 108 C 87.546431 117.52774 84.547383 124.10666 99.28125 113.71875 C 114.01772 103.32901 106.81554 103.94292 95.25 108 z M 74.71875 116.78125 C 63.793356 122.35602 58.367189 127.15527 76.0625 123.65625 C 93.744667 120.15983 86.926541 117.77966 74.71875 116.78125 z M 52.3125 116.46875 C 40.121001 117.12379 33.267325 119.32157 50.8125 123.3125 C 68.414215 127.31629 63.091097 122.3577 52.3125 116.46875 z M 32.09375 107.09375 C 20.640347 102.70483 13.434228 101.87861 27.875 112.6875 C 42.303652 123.48732 39.518797 116.83246 32.09375 107.09375 z M 17.375 90.25 C 8.7126336 81.603647 2.464252 77.957724 11.25 93.6875 C 20.046155 109.43591 20.204643 102.18526 17.375 90.25 z M 10.78125 68.9375 C 6.3782846 57.48569 2.1508056 51.59556 3.78125 69.5625 C 5.410252 87.513545 8.5122338 80.974396 10.78125 68.9375 z M 13.4375 46.71875 C 14.066648 34.49624 12.59183 27.414711 6.78125 44.46875 C 0.9637901 61.542981 6.4614641 56.807433 13.4375 46.71875 z M 24.875 27.5625 C 30.43441 16.634278 31.975491 9.552024 19.71875 22.78125 C 7.4693448 36.002558 14.412731 33.929564 24.875 27.5625 z M 43.125 14.65625 C 52.635561 6.9416034 56.942028 1.154423 40.375 8.25 C 23.805928 15.346452 30.976063 16.217894 43.125 14.65625 z M 84.28125 20.9375 L 102.21875 61.59375 L 90.34375 104.4375 L 46.15625 99.625 L 15 67.9375 L 41.25 32.0625 L 84.28125 20.9375 z "
       transform="translate(0,924.36218)"
       id="path2827" />
    <path
       sodipodi:type="star"
       style="fill:#ffcabd;fill-opacity:1;stroke:none"
       id="path2829"
       sodipodi:sides="9"
       sodipodi:cx="62.5"
       sodipodi:cy="65.5"
       sodipodi:r1="34.423088"
       sodipodi:r2="31.802788"
       sodipodi:arg1="1.0374941"
       sodipodi:arg2="1.38656"
       inkscape:flatsided="false"
       inkscape:rounded="0"
       inkscape:randomized="0"
       d="M 80.000001,95.142857 68.326138,96.764571 56.851718,99.45653 46.866602,93.195021 36.346328,87.881565 32.722106,76.666662 28.078533,65.834018 l 4.432485,-10.92072 3.405906,-11.283119 10.415184,-5.516609 9.861724,-6.454097 11.524502,2.468783 11.703132,1.39487 7.241378,9.299004 8.068514,8.591161 -0.430067,11.778119 0.658549,11.767551 -7.90028,8.746121 -7.059559,9.437775 z"
       transform="translate(1.0714286,922.93361)" />
    <path
       sodipodi:type="star"
       style="fill:#ffb4a4;fill-opacity:1;stroke:none"
       id="path3603"
       sodipodi:sides="7"
       sodipodi:cx="63.92857"
       sodipodi:cy="63"
       sodipodi:r1="19.72386"
       sodipodi:r2="8.9637253"
       sodipodi:arg1="0.83663533"
       sodipodi:arg2="1.676049"
       inkscape:flatsided="false"
       inkscape:rounded="0"
       inkscape:randomized="0"
       d="M 77.142856,77.642858 62.986855,71.91412 60.719295,82.461018 56.37208,67.821601 46.712384,72.624634 55.447496,60.098317 45.669611,55.540705 60.909334,54.56006 58.376207,44.073777 68.644718,55.37725 l 6.619127,-8.518569 -2.435099,15.075845 10.787044,-0.136199 -13.30503,7.495799 6.832096,8.348732 z"
       transform="translate(0,924.36218)" />
  </g>
</svg>
