<?xml version="1.0" encoding="UTF-8" standalone="no"?>
<!-- Created with Inkscape (http://www.inkscape.org/) -->

<svg
   xmlns:dc="http://purl.org/dc/elements/1.1/"
   xmlns:cc="http://creativecommons.org/ns#"
   xmlns:rdf="http://www.w3.org/1999/02/22-rdf-syntax-ns#"
   xmlns:svg="http://www.w3.org/2000/svg"
   xmlns="http://www.w3.org/2000/svg"
   xmlns:sodipodi="http://sodipodi.sourceforge.net/DTD/sodipodi-0.dtd"
   xmlns:inkscape="http://www.inkscape.org/namespaces/inkscape"
   width="128"
   height="128"
   id="svg2"
   version="1.1"
   inkscape:version="0.47 r22583"
   sodipodi:docname="orn_08.svg">
  <title
     id="title3764">Spiral ornament</title>
  <defs
     id="defs4">
    <inkscape:perspective
       sodipodi:type="inkscape:persp3d"
       inkscape:vp_x="0 : 526.18109 : 1"
       inkscape:vp_y="0 : 1000 : 0"
       inkscape:vp_z="744.09448 : 526.18109 : 1"
       inkscape:persp3d-origin="372.04724 : 350.78739 : 1"
       id="perspective10" />
    <inkscape:perspective
       id="perspective3613"
       inkscape:persp3d-origin="0.5 : 0.33333333 : 1"
       inkscape:vp_z="1 : 0.5 : 1"
       inkscape:vp_y="0 : 1000 : 0"
       inkscape:vp_x="0 : 0.5 : 1"
       sodipodi:type="inkscape:persp3d" />
    <inkscape:perspective
       id="perspective3635"
       inkscape:persp3d-origin="0.5 : 0.33333333 : 1"
       inkscape:vp_z="1 : 0.5 : 1"
       inkscape:vp_y="0 : 1000 : 0"
       inkscape:vp_x="0 : 0.5 : 1"
       sodipodi:type="inkscape:persp3d" />
    <inkscape:perspective
       id="perspective3635-8"
       inkscape:persp3d-origin="0.5 : 0.33333333 : 1"
       inkscape:vp_z="1 : 0.5 : 1"
       inkscape:vp_y="0 : 1000 : 0"
       inkscape:vp_x="0 : 0.5 : 1"
       sodipodi:type="inkscape:persp3d" />
    <inkscape:perspective
       id="perspective3635-3"
       inkscape:persp3d-origin="0.5 : 0.33333333 : 1"
       inkscape:vp_z="1 : 0.5 : 1"
       inkscape:vp_y="0 : 1000 : 0"
       inkscape:vp_x="0 : 0.5 : 1"
       sodipodi:type="inkscape:persp3d" />
    <inkscape:perspective
       id="perspective3635-6"
       inkscape:persp3d-origin="0.5 : 0.33333333 : 1"
       inkscape:vp_z="1 : 0.5 : 1"
       inkscape:vp_y="0 : 1000 : 0"
       inkscape:vp_x="0 : 0.5 : 1"
       sodipodi:type="inkscape:persp3d" />
    <inkscape:perspective
       id="perspective3635-4"
       inkscape:persp3d-origin="0.5 : 0.33333333 : 1"
       inkscape:vp_z="1 : 0.5 : 1"
       inkscape:vp_y="0 : 1000 : 0"
       inkscape:vp_x="0 : 0.5 : 1"
       sodipodi:type="inkscape:persp3d" />
    <inkscape:perspective
       id="perspective3635-31"
       inkscape:persp3d-origin="0.5 : 0.33333333 : 1"
       inkscape:vp_z="1 : 0.5 : 1"
       inkscape:vp_y="0 : 1000 : 0"
       inkscape:vp_x="0 : 0.5 : 1"
       sodipodi:type="inkscape:persp3d" />
    <inkscape:perspective
       id="perspective3635-9"
       inkscape:persp3d-origin="0.5 : 0.33333333 : 1"
       inkscape:vp_z="1 : 0.5 : 1"
       inkscape:vp_y="0 : 1000 : 0"
       inkscape:vp_x="0 : 0.5 : 1"
       sodipodi:type="inkscape:persp3d" />
    <inkscape:perspective
       id="perspective3778"
       inkscape:persp3d-origin="0.5 : 0.33333333 : 1"
       inkscape:vp_z="1 : 0.5 : 1"
       inkscape:vp_y="0 : 1000 : 0"
       inkscape:vp_x="0 : 0.5 : 1"
       sodipodi:type="inkscape:persp3d" />
    <inkscape:perspective
       id="perspective3800"
       inkscape:persp3d-origin="0.5 : 0.33333333 : 1"
       inkscape:vp_z="1 : 0.5 : 1"
       inkscape:vp_y="0 : 1000 : 0"
       inkscape:vp_x="0 : 0.5 : 1"
       sodipodi:type="inkscape:persp3d" />
    <inkscape:perspective
       id="perspective3836"
       inkscape:persp3d-origin="0.5 : 0.33333333 : 1"
       inkscape:vp_z="1 : 0.5 : 1"
       inkscape:vp_y="0 : 1000 : 0"
       inkscape:vp_x="0 : 0.5 : 1"
       sodipodi:type="inkscape:persp3d" />
    <inkscape:perspective
       id="perspective3858"
       inkscape:persp3d-origin="0.5 : 0.33333333 : 1"
       inkscape:vp_z="1 : 0.5 : 1"
       inkscape:vp_y="0 : 1000 : 0"
       inkscape:vp_x="0 : 0.5 : 1"
       sodipodi:type="inkscape:persp3d" />
    <inkscape:perspective
       id="perspective2837"
       inkscape:persp3d-origin="0.5 : 0.33333333 : 1"
       inkscape:vp_z="1 : 0.5 : 1"
       inkscape:vp_y="0 : 1000 : 0"
       inkscape:vp_x="0 : 0.5 : 1"
       sodipodi:type="inkscape:persp3d" />
    <inkscape:perspective
       id="perspective2837-7"
       inkscape:persp3d-origin="0.5 : 0.33333333 : 1"
       inkscape:vp_z="1 : 0.5 : 1"
       inkscape:vp_y="0 : 1000 : 0"
       inkscape:vp_x="0 : 0.5 : 1"
       sodipodi:type="inkscape:persp3d" />
  </defs>
  <sodipodi:namedview
     id="base"
     pagecolor="#ffffff"
     bordercolor="#666666"
     borderopacity="1.0"
     inkscape:pageopacity="0"
     inkscape:pageshadow="2"
     inkscape:zoom="2.8"
     inkscape:cx="65.464286"
     inkscape:cy="77.680138"
     inkscape:document-units="px"
     inkscape:current-layer="layer1"
     showgrid="true"
     inkscape:window-width="1280"
     inkscape:window-height="725"
     inkscape:window-x="0"
     inkscape:window-y="24"
     inkscape:window-maximized="1" />
  <metadata
     id="metadata7">
    <rdf:RDF>
      <cc:Work
         rdf:about="">
        <dc:format>image/svg+xml</dc:format>
        <dc:type
           rdf:resource="http://purl.org/dc/dcmitype/StillImage" />
        <dc:title>Spiral ornament</dc:title>
        <cc:license
           rdf:resource="http://creativecommons.org/licenses/publicdomain/" />
        <dc:date>2012-01-06</dc:date>
        <dc:creator>
          <cc:Agent>
            <dc:title>dibargatin</dc:title>
          </cc:Agent>
        </dc:creator>
      </cc:Work>
      <cc:License
         rdf:about="http://creativecommons.org/licenses/publicdomain/">
        <cc:permits
           rdf:resource="http://creativecommons.org/ns#Reproduction" />
        <cc:permits
           rdf:resource="http://creativecommons.org/ns#Distribution" />
        <cc:permits
           rdf:resource="http://creativecommons.org/ns#DerivativeWorks" />
      </cc:License>
    </rdf:RDF>
  </metadata>
  <g
     inkscape:label="Layer 1"
     inkscape:groupmode="layer"
     id="layer1"
     transform="translate(0,-924.36218)">
    <path
       style="fill:#98fc66;fill-opacity:1;stroke:none"
       d="M 75.78125 1.25 C 62.366673 1.1543089 56.207471 13.69789 55.21875 30.46875 C 42.949648 10.186416 25.48752 2.2757837 8.6875 30.40625 C -8.1183928 58.54655 7.0369936 70.351226 30.59375 71.75 C 10.448625 84.105148 2.5627181 101.67469 30.5 118.59375 C 58.432508 135.50991 70.165041 120.26644 71.5625 96.5625 C 83.831602 116.84483 101.29373 124.78672 118.09375 96.65625 C 134.89397 68.525447 119.73063 56.717833 96.1875 55.3125 C 116.3349 42.957255 124.21996 25.357418 96.28125 8.4375 C 88.111368 3.48975 81.326845 1.2895588 75.78125 1.25 z M 69.1875 27.90625 C 72.656472 27.727184 76.989643 28.964667 82.28125 32.03125 C 99.067523 41.759203 94.34014 51.859139 82.25 58.96875 C 96.396475 59.783597 105.50499 66.600099 95.40625 82.78125 C 85.298725 98.976481 74.785675 94.400514 67.40625 82.71875 C 66.571169 96.371782 59.526089 105.14641 42.71875 95.40625 C 25.932477 85.678297 30.65986 75.578361 42.75 68.46875 C 28.603525 67.653903 19.495013 60.837401 29.59375 44.65625 C 39.701275 28.461019 50.214325 33.036986 57.59375 44.71875 C 58.164547 35.360611 61.636273 28.296039 69.1875 27.90625 z "
       transform="translate(0,924.36218)"
       id="path2843" />
    <path
       style="fill:#98fc66;fill-opacity:1;stroke:none"
       d="m 67.521127,962.95583 c -5.82155,-0.0386 -8.494471,5.02221 -8.923548,11.78857 -5.324445,-8.18309 -12.902518,-11.37471 -20.193255,-0.0252 -7.293285,11.35341 -0.716273,16.11611 9.506697,16.68051 -8.742418,4.9848 -12.16468,12.07339 -0.04068,18.89949 12.121924,6.825 17.213513,0.6749 17.819972,-8.8887 5.324444,8.1831 12.902518,11.3873 20.193255,0.038 7.290823,-11.34959 0.71036,-16.11349 -9.506697,-16.68049 8.743405,-4.9848 12.1653,-12.08563 0.04066,-18.91212 -3.545498,-1.99621 -6.48979,-2.8839 -8.896424,-2.89986 z m -2.861503,10.7547 c 1.505436,-0.0722 3.38591,0.42703 5.68232,1.66427 7.28477,3.92479 5.233219,7.99969 -0.01354,10.86819 6.139175,0.3287 10.092012,3.0789 5.709443,9.6074 -4.38638,6.53401 -8.948748,4.68781 -12.151213,-0.025 -0.362402,5.50851 -3.419769,9.04871 -10.713682,5.11891 -7.284771,-3.92481 -5.233219,-7.99971 0.01356,-10.86821 -6.139173,-0.3287 -10.092011,-3.0789 -5.709443,-9.6073 4.386382,-6.53413 8.94875,-4.68791 12.151213,0.025 0.24771,-3.77562 1.754342,-6.62589 5.031362,-6.78316 z"
       id="path2843-8" />
  </g>
</svg>
