<?xml version="1.0" encoding="UTF-8" standalone="no"?>
<!-- Created with Inkscape (http://www.inkscape.org/) -->

<svg
   xmlns:dc="http://purl.org/dc/elements/1.1/"
   xmlns:cc="http://creativecommons.org/ns#"
   xmlns:rdf="http://www.w3.org/1999/02/22-rdf-syntax-ns#"
   xmlns:svg="http://www.w3.org/2000/svg"
   xmlns="http://www.w3.org/2000/svg"
   xmlns:sodipodi="http://sodipodi.sourceforge.net/DTD/sodipodi-0.dtd"
   xmlns:inkscape="http://www.inkscape.org/namespaces/inkscape"
   width="128"
   height="128"
   id="svg2"
   version="1.1"
   inkscape:version="0.47 r22583"
   sodipodi:docname="orn_3.svg">
  <title
     id="title3764">Spiral ornament</title>
  <defs
     id="defs4">
    <inkscape:perspective
       sodipodi:type="inkscape:persp3d"
       inkscape:vp_x="0 : 526.18109 : 1"
       inkscape:vp_y="0 : 1000 : 0"
       inkscape:vp_z="744.09448 : 526.18109 : 1"
       inkscape:persp3d-origin="372.04724 : 350.78739 : 1"
       id="perspective10" />
    <inkscape:perspective
       id="perspective3613"
       inkscape:persp3d-origin="0.5 : 0.33333333 : 1"
       inkscape:vp_z="1 : 0.5 : 1"
       inkscape:vp_y="0 : 1000 : 0"
       inkscape:vp_x="0 : 0.5 : 1"
       sodipodi:type="inkscape:persp3d" />
    <inkscape:perspective
       id="perspective3635"
       inkscape:persp3d-origin="0.5 : 0.33333333 : 1"
       inkscape:vp_z="1 : 0.5 : 1"
       inkscape:vp_y="0 : 1000 : 0"
       inkscape:vp_x="0 : 0.5 : 1"
       sodipodi:type="inkscape:persp3d" />
    <inkscape:perspective
       id="perspective3635-8"
       inkscape:persp3d-origin="0.5 : 0.33333333 : 1"
       inkscape:vp_z="1 : 0.5 : 1"
       inkscape:vp_y="0 : 1000 : 0"
       inkscape:vp_x="0 : 0.5 : 1"
       sodipodi:type="inkscape:persp3d" />
    <inkscape:perspective
       id="perspective3635-3"
       inkscape:persp3d-origin="0.5 : 0.33333333 : 1"
       inkscape:vp_z="1 : 0.5 : 1"
       inkscape:vp_y="0 : 1000 : 0"
       inkscape:vp_x="0 : 0.5 : 1"
       sodipodi:type="inkscape:persp3d" />
    <inkscape:perspective
       id="perspective3635-6"
       inkscape:persp3d-origin="0.5 : 0.33333333 : 1"
       inkscape:vp_z="1 : 0.5 : 1"
       inkscape:vp_y="0 : 1000 : 0"
       inkscape:vp_x="0 : 0.5 : 1"
       sodipodi:type="inkscape:persp3d" />
    <inkscape:perspective
       id="perspective3635-4"
       inkscape:persp3d-origin="0.5 : 0.33333333 : 1"
       inkscape:vp_z="1 : 0.5 : 1"
       inkscape:vp_y="0 : 1000 : 0"
       inkscape:vp_x="0 : 0.5 : 1"
       sodipodi:type="inkscape:persp3d" />
    <inkscape:perspective
       id="perspective3635-31"
       inkscape:persp3d-origin="0.5 : 0.33333333 : 1"
       inkscape:vp_z="1 : 0.5 : 1"
       inkscape:vp_y="0 : 1000 : 0"
       inkscape:vp_x="0 : 0.5 : 1"
       sodipodi:type="inkscape:persp3d" />
    <inkscape:perspective
       id="perspective3635-9"
       inkscape:persp3d-origin="0.5 : 0.33333333 : 1"
       inkscape:vp_z="1 : 0.5 : 1"
       inkscape:vp_y="0 : 1000 : 0"
       inkscape:vp_x="0 : 0.5 : 1"
       sodipodi:type="inkscape:persp3d" />
    <inkscape:perspective
       id="perspective3778"
       inkscape:persp3d-origin="0.5 : 0.33333333 : 1"
       inkscape:vp_z="1 : 0.5 : 1"
       inkscape:vp_y="0 : 1000 : 0"
       inkscape:vp_x="0 : 0.5 : 1"
       sodipodi:type="inkscape:persp3d" />
    <inkscape:perspective
       id="perspective3800"
       inkscape:persp3d-origin="0.5 : 0.33333333 : 1"
       inkscape:vp_z="1 : 0.5 : 1"
       inkscape:vp_y="0 : 1000 : 0"
       inkscape:vp_x="0 : 0.5 : 1"
       sodipodi:type="inkscape:persp3d" />
    <inkscape:perspective
       id="perspective3836"
       inkscape:persp3d-origin="0.5 : 0.33333333 : 1"
       inkscape:vp_z="1 : 0.5 : 1"
       inkscape:vp_y="0 : 1000 : 0"
       inkscape:vp_x="0 : 0.5 : 1"
       sodipodi:type="inkscape:persp3d" />
    <inkscape:perspective
       id="perspective3858"
       inkscape:persp3d-origin="0.5 : 0.33333333 : 1"
       inkscape:vp_z="1 : 0.5 : 1"
       inkscape:vp_y="0 : 1000 : 0"
       inkscape:vp_x="0 : 0.5 : 1"
       sodipodi:type="inkscape:persp3d" />
    <inkscape:perspective
       id="perspective2981"
       inkscape:persp3d-origin="0.5 : 0.33333333 : 1"
       inkscape:vp_z="1 : 0.5 : 1"
       inkscape:vp_y="0 : 1000 : 0"
       inkscape:vp_x="0 : 0.5 : 1"
       sodipodi:type="inkscape:persp3d" />
    <inkscape:perspective
       id="perspective2870"
       inkscape:persp3d-origin="0.5 : 0.33333333 : 1"
       inkscape:vp_z="1 : 0.5 : 1"
       inkscape:vp_y="0 : 1000 : 0"
       inkscape:vp_x="0 : 0.5 : 1"
       sodipodi:type="inkscape:persp3d" />
    <inkscape:perspective
       id="perspective2999"
       inkscape:persp3d-origin="0.5 : 0.33333333 : 1"
       inkscape:vp_z="1 : 0.5 : 1"
       inkscape:vp_y="0 : 1000 : 0"
       inkscape:vp_x="0 : 0.5 : 1"
       sodipodi:type="inkscape:persp3d" />
    <inkscape:perspective
       id="perspective2926"
       inkscape:persp3d-origin="0.5 : 0.33333333 : 1"
       inkscape:vp_z="1 : 0.5 : 1"
       inkscape:vp_y="0 : 1000 : 0"
       inkscape:vp_x="0 : 0.5 : 1"
       sodipodi:type="inkscape:persp3d" />
    <inkscape:perspective
       id="perspective3735"
       inkscape:persp3d-origin="0.5 : 0.33333333 : 1"
       inkscape:vp_z="1 : 0.5 : 1"
       inkscape:vp_y="0 : 1000 : 0"
       inkscape:vp_x="0 : 0.5 : 1"
       sodipodi:type="inkscape:persp3d" />
    <inkscape:perspective
       id="perspective3772"
       inkscape:persp3d-origin="0.5 : 0.33333333 : 1"
       inkscape:vp_z="1 : 0.5 : 1"
       inkscape:vp_y="0 : 1000 : 0"
       inkscape:vp_x="0 : 0.5 : 1"
       sodipodi:type="inkscape:persp3d" />
    <inkscape:perspective
       id="perspective3809"
       inkscape:persp3d-origin="0.5 : 0.33333333 : 1"
       inkscape:vp_z="1 : 0.5 : 1"
       inkscape:vp_y="0 : 1000 : 0"
       inkscape:vp_x="0 : 0.5 : 1"
       sodipodi:type="inkscape:persp3d" />
    <inkscape:perspective
       id="perspective3846"
       inkscape:persp3d-origin="0.5 : 0.33333333 : 1"
       inkscape:vp_z="1 : 0.5 : 1"
       inkscape:vp_y="0 : 1000 : 0"
       inkscape:vp_x="0 : 0.5 : 1"
       sodipodi:type="inkscape:persp3d" />
    <inkscape:perspective
       id="perspective3883"
       inkscape:persp3d-origin="0.5 : 0.33333333 : 1"
       inkscape:vp_z="1 : 0.5 : 1"
       inkscape:vp_y="0 : 1000 : 0"
       inkscape:vp_x="0 : 0.5 : 1"
       sodipodi:type="inkscape:persp3d" />
    <inkscape:perspective
       id="perspective3920"
       inkscape:persp3d-origin="0.5 : 0.33333333 : 1"
       inkscape:vp_z="1 : 0.5 : 1"
       inkscape:vp_y="0 : 1000 : 0"
       inkscape:vp_x="0 : 0.5 : 1"
       sodipodi:type="inkscape:persp3d" />
    <inkscape:perspective
       id="perspective3957"
       inkscape:persp3d-origin="0.5 : 0.33333333 : 1"
       inkscape:vp_z="1 : 0.5 : 1"
       inkscape:vp_y="0 : 1000 : 0"
       inkscape:vp_x="0 : 0.5 : 1"
       sodipodi:type="inkscape:persp3d" />
    <inkscape:perspective
       id="perspective2900"
       inkscape:persp3d-origin="0.5 : 0.33333333 : 1"
       inkscape:vp_z="1 : 0.5 : 1"
       inkscape:vp_y="0 : 1000 : 0"
       inkscape:vp_x="0 : 0.5 : 1"
       sodipodi:type="inkscape:persp3d" />
    <inkscape:perspective
       id="perspective2924"
       inkscape:persp3d-origin="0.5 : 0.33333333 : 1"
       inkscape:vp_z="1 : 0.5 : 1"
       inkscape:vp_y="0 : 1000 : 0"
       inkscape:vp_x="0 : 0.5 : 1"
       sodipodi:type="inkscape:persp3d" />
  </defs>
  <sodipodi:namedview
     id="base"
     pagecolor="#ffffff"
     bordercolor="#666666"
     borderopacity="1.0"
     inkscape:pageopacity="0"
     inkscape:pageshadow="2"
     inkscape:zoom="2.8"
     inkscape:cx="40.225709"
     inkscape:cy="51.965852"
     inkscape:document-units="px"
     inkscape:current-layer="layer1"
     showgrid="true"
     inkscape:window-width="1280"
     inkscape:window-height="725"
     inkscape:window-x="0"
     inkscape:window-y="24"
     inkscape:window-maximized="1" />
  <metadata
     id="metadata7">
    <rdf:RDF>
      <cc:Work
         rdf:about="">
        <dc:format>image/svg+xml</dc:format>
        <dc:type
           rdf:resource="http://purl.org/dc/dcmitype/StillImage" />
        <dc:title>Spiral ornament</dc:title>
        <cc:license
           rdf:resource="http://creativecommons.org/licenses/publicdomain/" />
        <dc:date>2012-01-06</dc:date>
        <dc:creator>
          <cc:Agent>
            <dc:title>dibargatin</dc:title>
          </cc:Agent>
        </dc:creator>
      </cc:Work>
      <cc:License
         rdf:about="http://creativecommons.org/licenses/publicdomain/">
        <cc:permits
           rdf:resource="http://creativecommons.org/ns#Reproduction" />
        <cc:permits
           rdf:resource="http://creativecommons.org/ns#Distribution" />
        <cc:permits
           rdf:resource="http://creativecommons.org/ns#DerivativeWorks" />
      </cc:License>
    </rdf:RDF>
  </metadata>
  <g
     inkscape:label="Layer 1"
     inkscape:groupmode="layer"
     id="layer1"
     transform="translate(0,-924.36218)">
    <path
       style="fill:#d9bb7a;fill-opacity:1;stroke:#ffffff;stroke-width:0.89717859;stroke-linejoin:round;stroke-miterlimit:4;stroke-opacity:1;stroke-dasharray:none"
       d="M 66.21875 2.875 C 53.328011 2.7698355 60.807018 12.726863 47.34375 17.375 C 33.446184 22.173076 33.377723 8.8400535 22.40625 18.5 C 11.434776 28.159947 24.906323 29.698822 18.53125 42.75 C 12.156177 55.801177 2.5268752 46.419515 1.71875 60.875 C 0.91062475 75.330485 11.524398 67.059674 16.40625 80.71875 C 21.288102 94.377825 7.7338885 94.435554 17.5625 105.21875 C 27.391112 116.00195 28.939695 102.76558 42.21875 109.03125 C 55.497804 115.29692 45.979619 124.76824 60.6875 125.5625 C 75.395382 126.35676 66.977433 115.92308 80.875 111.125 C 94.772566 106.32692 94.841027 119.65995 105.8125 110 C 116.78397 100.34005 103.31243 98.801178 109.6875 85.75 C 116.06257 72.698823 125.69187 82.080485 126.5 67.625 C 127.30813 53.169515 116.69435 61.440326 111.8125 47.78125 C 106.93065 34.122175 120.48486 34.064446 110.65625 23.28125 C 100.82764 12.498054 99.279055 25.734423 86 19.46875 C 72.720946 13.203077 82.239131 3.7317573 67.53125 2.9375 C 67.071629 2.9126795 66.63458 2.8783924 66.21875 2.875 z M 65.3125 24.71875 C 65.840882 24.696536 66.414563 24.686327 67.0625 24.71875 C 77.42949 25.237516 70.702632 31.438853 80.0625 35.53125 C 89.422368 39.623647 90.509709 30.988252 97.4375 38.03125 C 104.36529 45.074248 94.80898 45.109883 98.25 54.03125 C 101.69102 62.952617 109.19461 57.558462 108.625 67 C 108.05539 76.441538 101.24353 70.31943 96.75 78.84375 C 92.256469 87.368071 101.7646 88.346897 94.03125 94.65625 C 86.297902 100.9656 86.233332 92.272407 76.4375 95.40625 C 66.641667 98.540093 72.585741 105.36252 62.21875 104.84375 C 51.85176 104.32498 58.578618 98.123647 49.21875 94.03125 C 39.858882 89.938853 38.771541 98.605498 31.84375 91.5625 C 24.915959 84.519502 34.47227 84.452617 31.03125 75.53125 C 27.59023 66.609883 20.086635 72.035288 20.65625 62.59375 C 21.225865 53.152212 28.037719 59.27432 32.53125 50.75 C 37.024781 42.225679 27.516652 41.215603 35.25 34.90625 C 42.983348 28.596897 43.047918 37.290093 52.84375 34.15625 C 62.027343 31.218272 57.386774 25.051964 65.3125 24.71875 z "
       transform="translate(0,924.36218)"
       id="path2890" />
    <path
       style="fill:#d9bb7a;fill-opacity:1;stroke:#ffffff;stroke-width:0.46749887;stroke-linejoin:round;stroke-miterlimit:4;stroke-opacity:1;stroke-dasharray:none"
       d="m 65.609584,958.28213 c -6.999117,-0.0526 -2.938338,4.9267 -10.248312,7.25113 -7.54578,2.39942 -7.582952,-4.26814 -13.539989,0.56259 -5.957038,4.83073 1.357431,5.60029 -2.103959,12.12689 -3.461389,6.52666 -8.689685,1.8351 -9.128463,9.06392 -0.438778,7.22892 5.324044,3.09285 7.97468,9.92345 2.650636,6.83059 -4.708719,6.85949 0.627794,12.25189 5.336513,5.3925 6.177326,-1.2267 13.387282,1.9066 7.209955,3.1333 2.04199,7.8697 10.027736,8.2669 7.985746,0.3972 3.415163,-4.8205 10.960943,-7.2199 7.54578,-2.3994 7.582952,4.2682 13.539984,-0.5626 5.957036,-4.8307 -1.357425,-5.6003 2.103958,-12.12693 3.461389,-6.52655 8.689684,-1.83499 9.128464,-9.06391 0.438777,-7.22882 -5.324046,-3.09275 -7.97468,-9.92335 -2.650634,-6.8306 4.708717,-6.85947 -0.627795,-12.25196 -5.336506,-5.39244 -6.17732,1.22678 -13.387276,-1.90654 -7.209955,-3.13334 -2.04199,-7.86974 -10.027736,-8.26692 -0.249555,-0.0124 -0.486853,-0.0295 -0.712631,-0.0313 z m -0.492055,10.92359 c 0.286889,-0.0111 0.598373,-0.0162 0.950175,0 5.628829,0.25941 1.976434,3.36057 7.05844,5.40708 5.082005,2.0465 5.672384,-2.27185 9.433877,1.25016 3.761487,3.52207 -1.427173,3.53996 0.441152,8.00126 1.868326,4.46139 5.942447,1.76395 5.633173,6.48545 -0.309273,4.7215 -4.007814,1.65995 -6.447608,5.92277 -2.439793,4.26286 2.722712,4.75226 -1.476164,7.90746 -4.198875,3.1552 -4.233934,-1.192 -9.552649,0.3751 -5.318715,1.5672 -2.091339,4.979 -7.720169,4.7195 -5.628829,-0.2594 -1.976435,-3.3606 -7.05844,-5.4071 -5.082006,-2.0465 -5.672385,2.2875 -9.433878,-1.2346 -3.761491,-3.52203 1.427174,-3.55553 -0.441152,-8.01681 -1.868326,-4.4614 -5.942454,-1.74831 -5.633178,-6.46981 0.309276,-4.72149 4.007819,-1.65995 6.447614,-5.92277 2.439794,-4.26282 -2.722711,-4.76796 1.476164,-7.92311 4.198875,-3.15521 4.233933,1.19204 9.552649,-0.37508 4.986295,-1.46923 2.466666,-4.55287 6.769994,-4.7195 z"
       id="path2890-6" />
  </g>
</svg>
